<svg xmlns="http://www.w3.org/2000/svg" width="1600" height="1200" viewBox="0 0 1600 1200">
  <defs>
    <linearGradient id="bg2" x1="0" x2="0" y1="0" y2="1">
      <stop offset="0" stop-color="#0B3A33"/>
      <stop offset="1" stop-color="#0F5A4C"/>
    </linearGradient>
  </defs>
  <rect width="1600" height="1200" fill="url(#bg2)"/>
  <!-- Hoodie -->
  <g transform="translate(380,170)">
    <path d="M420,110c140,0 240,90 240,210v430c0,44-36,80-80,80H260c-44,0-80-36-80-80V320c0-120 100-210 240-210z"
          fill="#123E36"/>
    <!-- hood -->
    <path d="M420,110c-110,0-180,60-210,120c30,20 60,35 110,35h200c50,0 80-15 110-35c-30-60-100-120-210-120z"
          fill="#0E4D41"/>
    <!-- dock planks -->
    <g transform="translate(90,520)" opacity=".9">
      <rect x="0" y="0" width="660" height="18" fill="#DABF9F"/>
      <rect x="0" y="36" width="660" height="18" fill="#DABF9F" opacity=".92"/>
      <rect x="0" y="72" width="660" height="18" fill="#DABF9F" opacity=".84"/>
      <rect x="0" y="108" width="660" height="18" fill="#DABF9F" opacity=".76"/>
    </g>
    
  </g>
</svg>


